<?xml version="1.0" encoding="UTF-8" standalone="no"?>
<!-- Created with Inkscape (http://www.inkscape.org/) -->

<svg
   version="1.1"
   id="svg2"
   width="24"
   height="24"
   viewBox="0 0 24 24"
   xmlns="http://www.w3.org/2000/svg"
   xmlns:svg="http://www.w3.org/2000/svg">
  <defs
     id="defs6" />
  <g
     id="g8">
    <path
       style="fill:#000000;stroke-width:0.0479812"
       d="M 0.3509222,22.388997 C 0.16129735,22.287301 0.01155224,22.039094 0.01155224,21.826482 c 0,-0.173628 -0.56618395,0.822559 6.22859076,-10.959057 3.4306388,-5.9484641 5.316116,-9.1722901 5.401965,-9.2363851 0.179899,-0.134314 0.54947,-0.134411 0.729242,-1.92e-4 0.08562,0.06392 2.133315,3.568914 5.858632,10.0280751 3.149855,5.461393 5.739548,9.978528 5.754876,10.038078 0.05031,0.195452 -0.02671,0.420838 -0.201773,0.590521 L 23.612987,22.45239 12.063965,22.46468 C 0.94359536,22.47651 0.50885554,22.47368 0.3509222,22.389 Z M 22.218861,21.141314 c -0.0088,-0.02177 -0.693663,-1.209301 -1.521927,-2.638967 l -1.505933,-2.599394 h -2.808379 c -1.544607,0 -2.799381,0.0086 -2.788386,0.01907 0.011,0.01049 0.289887,0.08942 0.619758,0.175408 0.329871,0.08599 0.606556,0.161567 0.614854,0.167955 0.04486,0.03452 -0.05937,0.357289 -0.115373,0.357289 -0.03609,0 -0.34053,-0.07461 -0.676539,-0.165789 -0.33601,-0.09118 -0.615682,-0.161033 -0.621495,-0.155221 -0.0058,0.0058 0.530502,0.323323 1.191809,0.705578 0.661308,0.382255 1.234742,0.71831 1.274298,0.746789 0.07219,0.05198 0.06107,0.09532 -0.07787,0.303314 -0.05068,0.07587 0.07621,0.141361 -1.613673,-0.832829 l -1.055587,-0.608528 0.516938,0.521068 0.516938,0.521067 -0.134831,0.129176 -0.13483,0.129176 -0.475623,-0.477414 c -0.261594,-0.262578 -0.483902,-0.469137 -0.494019,-0.45902 -0.01012,0.01012 0.307257,0.581758 0.705277,1.270312 0.398019,0.688553 0.723672,1.261994 0.723672,1.274313 0,0.01232 -0.06746,0.05728 -0.149909,0.09992 -0.125031,0.06466 -0.159943,0.06685 -0.210377,0.01323 -0.03326,-0.03536 -0.378324,-0.614878 -0.766813,-1.287814 -0.38849,-0.672937 -0.696199,-1.180339 -0.6838,-1.127559 0.0124,0.05278 0.0932,0.361113 0.179556,0.685186 0.08636,0.324073 0.145946,0.600288 0.132422,0.613812 -0.01352,0.01352 -0.09914,0.03669 -0.19026,0.05147 l -0.165671,0.02688 -0.172392,-0.640697 -0.172391,-0.640697 -0.0038,1.451432 -0.0037,1.451432 h -0.215212 -0.215211 l -0.0127,-1.449276 -0.0127,-1.449277 -0.165429,0.633596 c -0.122916,0.470774 -0.184567,0.633427 -0.239906,0.632941 -0.151787,-0.0013 -0.290393,-0.06046 -0.290393,-0.123876 0,-0.03595 0.07461,-0.340274 0.165789,-0.676284 0.09118,-0.336009 0.161274,-0.61544 0.155756,-0.620958 -0.0055,-0.0055 -0.316605,0.522641 -0.691305,1.173687 -0.8616586,1.497147 -0.7753164,1.382277 -0.9651968,1.284087 -0.083853,-0.04336 -0.1524608,-0.0918 -0.1524608,-0.107637 0,-0.02304 0.5785496,-1.03812 1.4042386,-2.463763 0.0659,-0.113777 -0.07165,-0.0015 -0.426515,0.348016 L 9.9657834,17.91847 9.834619,17.787306 9.7034547,17.656141 10.219406,17.131252 c 0.283773,-0.288689 0.461972,-0.492194 0.395998,-0.452235 -0.34085,0.206449 -2.4066335,1.389008 -2.4666648,1.412044 -0.045295,0.01738 -0.098278,-0.02816 -0.1507047,-0.129544 -0.072957,-0.141084 -0.07355,-0.16169 -0.00607,-0.211033 0.04113,-0.03008 0.6141745,-0.36618 1.2734308,-0.746897 0.6592562,-0.380718 1.1940847,-0.696777 1.1885077,-0.702354 -0.0056,-0.0056 -0.285057,0.06446 -0.621066,0.155649 -0.3360091,0.09118 -0.6403367,0.165789 -0.6762833,0.165789 -0.063241,0 -0.1225301,-0.138504 -0.123876,-0.289385 -4.798e-4,-0.05403 0.1675068,-0.117493 0.6350962,-0.239906 l 0.6357511,-0.166437 -1.4514318,-0.0127 -1.451432,-0.0127 v -0.215212 -0.215212 l 1.451432,-0.0043 1.4514318,-0.0043 -0.6405957,-0.172474 -0.6405954,-0.172474 0.026783,-0.165046 c 0.014731,-0.09078 0.038202,-0.176464 0.052159,-0.190421 0.013957,-0.01396 0.3214718,0.05278 0.6833663,0.148309 0.3618948,0.09552 0.6623288,0.168997 0.6676308,0.163269 0.0053,-0.0057 -0.550785,-0.332881 -1.2357477,-0.727006 -0.6849627,-0.394124 -1.2562376,-0.734147 -1.2694997,-0.755605 -0.037489,-0.06066 0.1404003,-0.3316 0.202156,-0.307902 0.030235,0.0116 0.6029013,0.338579 1.2725925,0.726615 0.6696909,0.388036 1.2392109,0.71652 1.2656009,0.729964 0.02639,0.01344 -0.184197,-0.210968 -0.46797,-0.498693 l -0.5159518,-0.523137 0.1311643,-0.131164 0.1311644,-0.131165 0.5248891,0.515952 c 0.288689,0.283773 0.492313,0.461972 0.452496,0.395998 -0.194268,-0.321897 -1.3904099,-2.409608 -1.4103658,-2.461612 -0.012575,-0.03277 0.045686,-0.100075 0.1294702,-0.149567 0.1402121,-0.08283 0.1569043,-0.08373 0.2097777,-0.01143 0.031595,0.04321 0.3678079,0.617288 0.7471409,1.275735 0.379333,0.658446 0.694634,1.192237 0.700669,1.186202 0.006,-0.006 -0.06363,-0.285889 -0.154817,-0.621898 -0.09118,-0.336009 -0.165789,-0.640452 -0.165789,-0.67654 0,-0.05608 0.322226,-0.160028 0.357641,-0.115373 0.0066,0.0083 0.08534,0.295779 0.175027,0.638845 l 0.16306,0.623756 0.0127,-1.451432 0.0127,-1.451432 h 0.215211 0.215212 l 0.0043,1.451432 0.0043,1.451432 0.172183,-0.639488 0.172184,-0.639488 0.171386,0.03201 c 0.09426,0.0176 0.180083,0.04058 0.190711,0.05105 0.01063,0.01047 -0.05883,0.315141 -0.154358,0.677035 -0.09553,0.361895 -0.168997,0.662283 -0.163269,0.667529 0.0057,0.0052 0.332358,-0.550517 0.725845,-1.23503 0.393486,-0.684512 0.733107,-1.255493 0.754712,-1.268846 0.03666,-0.02266 0.118201,0.01197 0.27427,0.116481 0.05076,0.03399 -0.09552,0.321788 -0.665414,1.309095 -0.401766,0.696037 -0.741608,1.287114 -0.755203,1.313504 -0.0136,0.02639 0.210692,-0.184197 0.498417,-0.46797 l 0.523137,-0.515952 0.131164,0.131165 0.131164,0.131164 -0.515951,0.523777 c -0.350131,0.355442 -0.461979,0.492562 -0.348017,0.426651 1.936346,-1.119903 2.453221,-1.413277 2.463613,-1.398328 0.10777,0.155035 0.174821,0.291865 0.157086,0.320562 -0.01224,0.01981 -0.583353,0.359263 -1.269139,0.754349 -0.685785,0.395086 -1.242357,0.723025 -1.236827,0.728753 0.0055,0.0057 0.306151,-0.06774 0.668046,-0.163269 0.361895,-0.09553 0.666561,-0.164988 0.677035,-0.154359 0.01048,0.01063 0.03345,0.09645 0.05105,0.190712 l 0.03201,0.171385 -0.639488,0.172184 -0.639489,0.172184 2.678952,0.0043 c 1.559678,0.0025 2.672269,-0.01366 2.662958,-0.03868 -0.0088,-0.02363 -1.55979,-2.709901 -3.446651,-5.9694801 -2.543887,-4.3946 -3.444361,-5.912086 -3.483672,-5.870714 -0.03649,0.0384 -9.8751145,17.0120631 -10.1767213,17.5569451 -0.010955,0.01979 4.5821545,0.03599 10.2069123,0.03599 5.624755,0 10.219633,-0.01781 10.210836,-0.03957 z"
       id="path508" />
  </g>
</svg>
