<?xml version="1.0" encoding="UTF-8" standalone="no"?>
<!-- Created with Inkscape (http://www.inkscape.org/) -->

<svg
   version="1.1"
   id="svg2"
   width="24"
   height="24"
   viewBox="0 0 24 24"
   xmlns="http://www.w3.org/2000/svg"
   xmlns:svg="http://www.w3.org/2000/svg">
  <defs
     id="defs6" />
  <g
     id="g8">
    <path
       style="fill:#000000;stroke-width:0.0393557"
       d="m 11.586152,17.053719 -0.01016,-2.522195 -0.307638,1.153935 c -0.169203,0.634663 -0.315321,1.161615 -0.324707,1.171003 -0.03226,0.03231 -0.607362,-0.129972 -0.606792,-0.171238 3.12e-4,-0.02272 0.132785,-0.536077 0.294377,-1.140787 0.161591,-0.604711 0.287869,-1.105409 0.280614,-1.112663 -0.0071,-0.0072 -0.56712,0.94797 -1.2441362,2.122722 -0.6770255,1.174753 -1.2364983,2.142337 -1.243281,2.150187 -0.026204,0.03034 -0.547369,-0.299984 -0.5385452,-0.341349 0.00535,-0.02408 0.5076976,-0.907823 1.1168063,-1.963882 0.6091084,-1.056059 1.1684831,-2.026368 1.2430581,-2.156241 0.125556,-0.21868 0.0714,-0.172161 -0.7330432,0.62931 L 8.6440777,15.737965 8.4181263,15.512009 8.192166,15.286053 9.0375829,14.439947 c 0.4649868,-0.465358 0.8298902,-0.846106 0.8109152,-0.846106 -0.018982,0 -0.9875692,0.550543 -2.1524161,1.223427 -1.1648558,0.672884 -2.1312745,1.226323 -2.147594,1.229866 -0.049199,0.01068 -0.3409904,-0.528374 -0.3038503,-0.56132 0.018985,-0.0168 0.9819183,-0.575871 2.1399646,-1.242381 1.1580463,-0.666511 2.1224952,-1.227151 2.1432267,-1.245868 0.020768,-0.01871 -0.05009,-0.0087 -0.15742,0.02225 -0.524124,0.151195 -2.1524871,0.577871 -2.1633966,0.56687 -0.00713,-0.0069 -0.04706,-0.147742 -0.089334,-0.313007 L 7.0407594,12.9732 7.9505988,12.728951 c 1.6453423,-0.441696 1.7930563,-0.388493 -1.087456,-0.391702 l -2.5089325,-0.0028 v -0.334504 -0.334523 l 2.5089325,-0.0028 c 2.8805123,-0.0032 2.7327983,0.04999 1.087456,-0.391703 l -0.9098394,-0.244248 0.076918,-0.30048 c 0.042336,-0.165264 0.082534,-0.306117 0.089334,-0.313007 0.010874,-0.011 1.6392726,0.415675 2.1633966,0.56687 0.1073116,0.03096 0.1781514,0.04098 0.15742,0.02225 C 9.5070619,10.983651 8.5426486,10.423009 7.3846023,9.7564994 6.226556,9.0899888 5.2635777,8.5309162 5.2446377,8.5141172 5.21371,8.4866475 5.4864986,7.9570902 5.5355376,7.9495026 5.546679,7.9478136 6.513944,8.4997968 7.684932,9.176223 8.8559198,9.85265 9.8295222,10.40609 9.8484981,10.40609 c 0.018982,0 -0.3459284,-0.380748 -0.8109152,-0.8461063 L 8.192166,8.713878 8.4181263,8.4879221 8.6440777,8.2619654 9.5127037,9.1274106 C 10.317121,9.9288822 10.371303,9.9753997 10.245747,9.7567204 10.171145,9.6268466 9.6117972,8.6565376 9.0026888,7.600479 8.3935801,6.5444196 7.8910164,5.6606727 7.8858826,5.6365962 c -0.00892,-0.04149 0.5121361,-0.3714939 0.5388838,-0.3413495 0.00713,0.00784 0.5663802,0.9754902 1.2431553,2.1503098 0.6767673,1.1748195 1.2364813,2.1300453 1.2437983,2.1227234 0.0071,-0.00731 -0.118898,-0.5080764 -0.280489,-1.1127866 -0.161592,-0.6047102 -0.294065,-1.1180647 -0.294377,-1.1407874 -5.7e-4,-0.041266 0.574483,-0.2035469 0.606792,-0.1712376 0.0094,0.00939 0.155504,0.5363392 0.324707,1.1710031 l 0.307638,1.1539339 0.01016,-2.5221941 0.01016,-2.5221941 h 0.314563 0.314554 l 0.0027,2.5286061 c 0.0018,1.5595341 0.01649,2.4984403 0.0386,2.4498943 0.01979,-0.04329 0.162046,-0.5568835 0.316158,-1.1413158 0.154114,-0.5844335 0.294822,-1.0781173 0.312675,-1.0970759 0.03289,-0.034947 0.578234,0.080145 0.603413,0.1273459 0.0071,0.013859 -0.124522,0.5383839 -0.293128,1.1656198 -0.168614,0.6272349 -0.302415,1.1445763 -0.297343,1.1496467 0.0054,0.00508 0.554588,-0.9363732 1.221158,-2.0920978 0.666562,-1.1557244 1.233075,-2.1302307 1.258922,-2.1655704 0.04224,-0.057818 0.07344,-0.049217 0.310954,0.085841 0.145192,0.082551 0.264144,0.1620947 0.264348,0.1767574 2.77e-4,0.020205 -1.916116,3.3640093 -2.409437,4.2040821 -0.04448,0.07576 0.298137,-0.2385944 0.761395,-0.6985651 0.463258,-0.4599697 0.860444,-0.8363087 0.882646,-0.8363087 0.0222,0 0.136786,0.097634 0.254633,0.2169635 l 0.214266,0.2169654 -0.864981,0.8698954 c -0.659029,0.662775 -0.822813,0.845903 -0.68788,0.769129 0.0974,-0.05542 1.079853,-0.6224848 2.183209,-1.2601443 1.760436,-1.0173961 2.011441,-1.1514125 2.049633,-1.0943226 0.02397,0.035785 0.09845,0.1624727 0.165575,0.2815359 l 0.122036,0.2164787 -2.144421,1.238931 c -1.179428,0.6814113 -2.129849,1.2437873 -2.112041,1.2497203 0.01783,0.0059 0.526326,-0.122312 1.130034,-0.284995 0.603716,-0.162683 1.104497,-0.288957 1.112839,-0.280608 0.0081,0.0083 0.05151,0.143702 0.09601,0.300784 0.05268,0.186039 0.06676,0.294084 0.04047,0.309925 -0.0222,0.01338 -0.540452,0.157147 -1.151718,0.319489 l -1.111396,0.295167 4.768686,0.01 4.768696,0.01 v 0.334208 0.334209 l -4.768696,0.01 -4.768686,0.01 1.111396,0.295167 c 0.611266,0.162342 1.129533,0.306113 1.151718,0.319489 0.02629,0.01583 0.01212,0.123887 -0.04047,0.309925 -0.04448,0.157083 -0.08761,0.292436 -0.09601,0.300785 -0.0081,0.0083 -0.509123,-0.117925 -1.112839,-0.280608 -0.603708,-0.162684 -1.112226,-0.290932 -1.130034,-0.284997 -0.01783,0.006 0.932613,0.568309 2.112041,1.249722 l 2.144421,1.23893 -0.122036,0.21648 c -0.06712,0.119062 -0.141635,0.245755 -0.165575,0.281535 -0.03823,0.05709 -0.289197,-0.07692 -2.049633,-1.094322 -1.103356,-0.637659 -2.085809,-1.204724 -2.183209,-1.260146 -0.134933,-0.07678 0.02888,0.106354 0.68788,0.769131 l 0.864981,0.869895 -0.214266,0.216965 c -0.117847,0.11933 -0.232431,0.216964 -0.254633,0.216964 -0.0222,0 -0.419388,-0.376339 -0.882646,-0.836309 -0.463258,-0.459971 -0.805879,-0.774325 -0.761395,-0.698565 0.493321,0.840073 2.409714,4.183874 2.409437,4.204082 -2.04e-4,0.01466 -0.119156,0.09421 -0.264348,0.176758 -0.23752,0.135056 -0.26868,0.143658 -0.310954,0.08584 -0.02584,-0.03534 -0.59236,-1.009845 -1.258922,-2.16557 -0.66657,-1.155724 -1.216088,-2.097168 -1.221158,-2.092098 -0.0054,0.0051 0.128729,0.522412 0.297343,1.149647 0.168606,0.627235 0.300517,1.151764 0.293128,1.16562 -0.02522,0.0472 -0.570507,0.162289 -0.603413,0.127346 -0.01783,-0.01895 -0.158561,-0.512642 -0.312675,-1.097076 -0.154112,-0.584433 -0.296381,-1.098025 -0.316158,-1.141316 -0.0222,-0.04855 -0.03698,0.89036 -0.0386,2.449895 l -0.0027,2.528606 H 11.91088 11.596317 Z"
       id="path30" />
  </g>
</svg>
